<?xml version="1.0" encoding="UTF-8"?>
<svg width="13px" height="7px" viewBox="0 0 13 7" version="1.1" xmlns="http://www.w3.org/2000/svg" xmlns:xlink="http://www.w3.org/1999/xlink">
    <!-- Generator: Sketch 42 (36781) - http://www.bohemiancoding.com/sketch -->
    <title>arrow-down</title>
    <desc>Created with Sketch.</desc>
    <defs></defs>
    <g id="Product-Single" stroke="none" stroke-width="1" fill="none" fill-rule="evenodd">
        <g transform="translate(-1188.000000, -738.000000)" id="Group-19" fill="#4A4A4A">
            <g transform="translate(974.000000, 721.000000)">
                <g id="Group-18">
                    <g id="Group-8" transform="translate(159.000000, 0.000000)">
                        <path d="M67.2993249,17.1714629 L61.4761704,22.9448504 L55.7031943,17.1216959 C55.5434051,16.9602615 55.2828479,16.9594389 55.1216192,17.1192281 C54.9603904,17.2790173 54.9593622,17.5395745 55.1191514,17.7005976 L61.1228656,23.7565466 C61.1979275,23.8322254 61.2945824,23.872329 61.392677,23.8776738 C61.4212622,23.879319 61.4498474,23.8774682 61.4780213,23.8733531 C61.4891263,23.8750004 61.4998201,23.8776738 61.5109251,23.8778795 C61.6227981,23.8838433 61.7369332,23.8445643 61.8224832,23.7594257 L67.8782266,17.7553002 C68.039661,17.595511 68.0406892,17.3351595 67.8806944,17.1737251 C67.7206995,17.0122907 67.460348,17.0114681 67.2993249,17.1714629 L67.2993249,17.1714629 Z" id="arrow-down"></path>
                    </g>
                </g>
            </g>
        </g>
    </g>
</svg>