<?xml version="1.0" encoding="UTF-8"?>
<svg width="38px" height="34px" viewBox="0 0 38 34" version="1.1" xmlns="http://www.w3.org/2000/svg" xmlns:xlink="http://www.w3.org/1999/xlink">
    <!-- Generator: Sketch 42 (36781) - http://www.bohemiancoding.com/sketch -->
    <title>cart-icon</title>
    <desc>Created with Sketch.</desc>
    <defs></defs>
    <g id="Home" stroke="none" stroke-width="1" fill="none" fill-rule="evenodd">
        <g transform="translate(-1596.000000, -69.000000)" id="Group-13" fill="#F0F0F0">
            <g transform="translate(175.000000, 50.000000)">
                <g id="Group" transform="translate(1421.000000, 19.000000)">
                    <path d="M7.19733933,30.7106465 C7.19733933,32.0153414 8.26117487,33.0730037 9.57348187,33.0730037 C10.88579,33.0730037 11.9496256,32.0153392 11.9496256,30.7106465 C11.9496256,29.4059512 10.88579,28.3482892 9.57348187,28.3482892 C8.26117368,28.3482892 7.19733814,29.4059512 7.19733933,30.7106465 L7.19733933,30.7106465 Z M28.5826257,30.7106465 C28.5826257,32.0153414 29.646466,33.0730037 30.9587718,33.0730037 C32.2710776,33.0730037 33.3349179,32.0153392 33.3349179,30.7106465 C33.3349179,29.4059512 32.2710776,28.3482892 30.9587718,28.3482892 C29.646466,28.3482892 28.5826257,29.4059512 28.5826257,30.7106465 L28.5826257,30.7106465 Z M0,1.18117985 C0,1.83319491 0.532256179,2.3623597 1.18807179,2.3623597 L3.65688521,2.3623597 L5.13247039,8.63678611 L7.19733933,18.8988658 C7.19733933,18.983905 7.2377337,19.0571402 7.24723804,19.1398163 L6.03778051,24.54962 C5.95936757,24.8992476 6.04490907,25.2654151 6.27064235,25.5441707 C6.49637683,25.8252919 6.83616465,25.9859319 7.19733933,25.9859319 L34.1523131,25.9859319 C34.8081213,25.9859319 35.3403862,25.4567647 35.3403862,24.8047532 C35.3403862,24.1527429 34.8081213,23.6235745 34.1523131,23.6235745 L8.68005307,23.6235745 L9.2241897,21.1903535 C9.34299581,21.2092472 9.44992298,21.2612136 9.57348187,21.2612136 L31.2320292,21.2612136 C32.5436576,21.2612136 33.3349179,21.0037208 33.9669682,19.4894498 L37.8258257,7.72018866 C38.4959077,5.61060724 37.0250693,4.7247194 35.711064,4.7247194 L7.19733933,4.7247194 C7.01199922,4.7247194 6.85042176,4.78850181 6.67696298,4.82866417 L5.75501996,0.91187108 C5.62908409,0.377979915 5.15147909,0 4.59783811,0 L1.18807179,0 C0.529880033,0 0,0.529176607 0,1.18117985 L0,1.18117985 Z M7.24486107,7.08707909 L35.5328501,7.08707909 L31.7405242,18.6602666 C31.6953735,18.7618482 31.6573656,18.8350834 31.6288419,18.8846866 C31.5504373,18.8917762 31.4268701,18.8988658 31.2320292,18.8988658 L9.57348187,18.8988658 L9.57348187,18.664993 L9.52833592,18.4358348 L7.24486107,7.08707909 L7.24486107,7.08707909 Z" id="cart-icon"></path>
                </g>
            </g>
        </g>
    </g>
</svg>