<?xml version="1.0" encoding="UTF-8"?>
<svg width="38px" height="29px" viewBox="0 0 38 29" version="1.1" xmlns="http://www.w3.org/2000/svg" xmlns:xlink="http://www.w3.org/1999/xlink">
    <!-- Generator: Sketch 42 (36781) - http://www.bohemiancoding.com/sketch -->
    <title>diamond-icon</title>
    <desc>Created with Sketch.</desc>
    <defs></defs>
    <g id="Home" stroke="none" stroke-width="1" fill="none" fill-rule="evenodd">
        <g transform="translate(-409.000000, -1696.000000)" id="Group-26" fill="#666666">
            <g transform="translate(175.000000, 1696.000000)">
                <g id="diamond-icon" transform="translate(234.000000, 0.000000)">
                    <path d="M18.7001752,28.7238095 C18.2627442,28.7238095 17.8253132,28.5141467 17.3878822,28.3044838 L0.328073249,11.9507821 C-0.10935775,11.5314564 -0.10935775,10.9024678 0.328073249,10.4831422 L8.63926222,0.419325686 C8.85797772,0.209662843 9.07669322,0 9.51412422,0 L28.1049417,0 C28.5423727,0 28.7610882,0.209662843 28.9798037,0.419325686 L37.2909926,10.4831422 C37.7284236,10.9024678 37.5097081,11.5314564 37.2909926,11.9507821 L20.0124682,28.3044838 C19.5750372,28.7238095 19.1376062,28.7238095 18.7001752,28.7238095 L18.7001752,28.7238095 Z M2.73394374,11.1121307 L18.7001752,26.4175182 L34.6664066,11.1121307 L27.4487952,2.30629128 L9.95155522,2.30629128 L2.73394374,11.1121307 L2.73394374,11.1121307 Z" id="Fill-1"></path>
                    <polygon id="Fill-3" points="2 11 35.967968 11 35.967968 12.7952381 2 12.7952381"></polygon>
                    <path d="M17.4406342,2.63113839 L14.8166231,12.5189732 L19.0554102,25.7728795 L23.2941974,12.5189732 L20.6701863,2.63113839 L22.6886564,2 L25.5145145,12.3085937 L25.5145145,12.9397321 L20.8720333,27.6662946 C20.6701863,28.297433 20.0646453,28.9285714 19.2572573,28.9285714 C18.4498692,28.9285714 17.8443282,28.5078125 17.6424812,27.6662946 L13,12.9397321 L13,12.3085937 L15.8258581,2 L17.4406342,2.63113839 L17.4406342,2.63113839 Z" id="Fill-4"></path>
                </g>
            </g>
        </g>
    </g>
</svg>