<?xml version="1.0" encoding="UTF-8"?>
<svg width="27px" height="27px" viewBox="0 0 27 27" version="1.1" xmlns="http://www.w3.org/2000/svg" xmlns:xlink="http://www.w3.org/1999/xlink">
    <!-- Generator: Sketch 42 (36781) - http://www.bohemiancoding.com/sketch -->
    <title>intagram-icon</title>
    <desc>Created with Sketch.</desc>
    <defs></defs>
    <g id="Home" stroke="none" stroke-width="1" fill="none" fill-rule="evenodd">
        <g transform="translate(-1546.000000, -72.000000)" id="Group-13" fill="#F0F0F0">
            <g transform="translate(175.000000, 50.000000)">
                <g id="intagram-icon" transform="translate(1371.000000, 22.000000)">
                    <path d="M13.5,0 C9.8334,0 9.37386,0.01566 7.93422,0.081 C6.49728,0.14688 5.51556,0.37476 4.65696,0.70848 C3.7692,1.05354 3.01644,1.51524 2.26584,2.26584 C1.51524,3.01644 1.05354,3.7692 0.70848,4.65696 C0.37476,5.51556 0.14688,6.49728 0.081,7.93422 C0.01566,9.37386 0,9.8334 0,13.5 C0,17.1666 0.01566,17.62614 0.081,19.06578 C0.14688,20.50272 0.37476,21.48444 0.70848,22.34304 C1.05354,23.2308 1.51524,23.98356 2.26584,24.73416 C3.01644,25.48476 3.7692,25.94646 4.65696,26.29152 C5.51556,26.62524 6.49728,26.85312 7.93422,26.919 C9.37386,26.98434 9.8334,27 13.5,27 C17.1666,27 17.62614,26.98434 19.06578,26.919 C20.50272,26.85312 21.48444,26.62524 22.34304,26.29152 C23.2308,25.94646 23.98356,25.48476 24.73416,24.73416 C25.48476,23.98356 25.94646,23.2308 26.29152,22.34304 C26.62524,21.48444 26.85312,20.50272 26.919,19.06578 C26.98434,17.62614 27,17.1666 27,13.5 C27,9.8334 26.98434,9.37386 26.919,7.93422 C26.85312,6.49728 26.62524,5.51556 26.29152,4.65696 C25.94646,3.7692 25.48476,3.01644 24.73416,2.26584 C23.98356,1.51524 23.2308,1.05354 22.34304,0.70848 C21.48444,0.37476 20.50272,0.14688 19.06578,0.081 C17.62614,0.01566 17.1666,0 13.5,0 M13.5,2.4327 C17.1045,2.4327 17.53164,2.4462 18.95508,2.511 C20.2716,2.57094 20.98602,2.79126 21.46176,2.97594 C22.09194,3.2211 22.54176,3.51324 23.01426,3.98574 C23.48676,4.45824 23.7789,4.90806 24.02406,5.53824 C24.20874,6.01398 24.42906,6.7284 24.489,8.04492 C24.5538,9.46836 24.5673,9.8955 24.5673,13.5 C24.5673,17.1045 24.5538,17.53164 24.489,18.95508 C24.42906,20.2716 24.20874,20.98602 24.02406,21.46176 C23.7789,22.09194 23.48676,22.54176 23.01426,23.01426 C22.54176,23.48676 22.09194,23.7789 21.46176,24.02406 C20.98602,24.20874 20.2716,24.42906 18.95508,24.489 C17.53164,24.5538 17.10504,24.5673 13.5,24.5673 C9.89496,24.5673 9.46836,24.5538 8.04492,24.489 C6.7284,24.42906 6.01398,24.20874 5.53824,24.02406 C4.90806,23.7789 4.45824,23.48676 3.98574,23.01426 C3.51324,22.54176 3.2211,22.09194 2.97594,21.46176 C2.79126,20.98602 2.57094,20.2716 2.511,18.95508 C2.4462,17.53164 2.4327,17.1045 2.4327,13.5 C2.4327,9.8955 2.4462,9.46836 2.511,8.04492 C2.57094,6.7284 2.79126,6.01398 2.97594,5.53824 C3.2211,4.90806 3.51324,4.45824 3.98574,3.98574 C4.45824,3.51324 4.90806,3.2211 5.53824,2.97594 C6.01398,2.79126 6.7284,2.57094 8.04492,2.511 C9.46836,2.4462 9.8955,2.4327 13.5,2.4327" id="Fill-1"></path>
                    <path d="M13.5,17.999982 C11.01492,17.999982 9.00018,15.985242 9.00018,13.500162 C9.00018,11.014542 11.01492,8.999802 13.5,8.999802 C15.98508,8.999802 17.99982,11.014542 17.99982,13.500162 C17.99982,15.985242 15.98508,17.999982 13.5,17.999982 M13.5,6.567642 C9.6714,6.567642 6.56748,9.671562 6.56748,13.500162 C6.56748,17.328762 9.6714,20.432682 13.5,20.432682 C17.3286,20.432682 20.43252,17.328762 20.43252,13.500162 C20.43252,9.671562 17.3286,6.567642 13.5,6.567642" id="Fill-3"></path>
                    <path d="M22.326354,6.293646 C22.326354,7.188426 21.601134,7.913646 20.706354,7.913646 C19.811574,7.913646 19.086354,7.188426 19.086354,6.293646 C19.086354,5.398866 19.811574,4.673646 20.706354,4.673646 C21.601134,4.673646 22.326354,5.398866 22.326354,6.293646" id="Fill-5"></path>
                </g>
            </g>
        </g>
    </g>
</svg>