<?xml version="1.0" encoding="UTF-8"?>
<svg width="8px" height="11px" viewBox="0 0 8 11" version="1.1" xmlns="http://www.w3.org/2000/svg" xmlns:xlink="http://www.w3.org/1999/xlink">
    <!-- Generator: Sketch 42 (36781) - http://www.bohemiancoding.com/sketch -->
    <title>last-arrow</title>
    <desc>Created with Sketch.</desc>
    <defs></defs>
    <g id="Products" stroke="none" stroke-width="1" fill="none" fill-rule="evenodd">
        <g transform="translate(-1718.000000, -2557.000000)" id="Group-30" fill="#F0F0F0">
            <g transform="translate(1707.000000, 2547.000000)">
                <g id="last-arrow" transform="translate(11.000000, 10.000000)">
                    <path d="M6.56881532,3.10551565 L2.98533565,6.65836946 L-0.567265045,3.07488979 C-0.665596861,2.97554554 -0.825939732,2.97503933 -0.92515742,3.07337115 C-1.02437511,3.17170296 -1.02500787,3.33204583 -0.926676058,3.43113697 L2.7679173,7.15787483 C2.81410921,7.2044464 2.8735892,7.22912554 2.93395506,7.23241465 C2.95154595,7.23342708 2.96913685,7.2322881 2.98647463,7.22975577 C2.9933085,7.23076946 2.99988927,7.23241465 3.00672314,7.23254121 C3.07556807,7.23621125 3.14580508,7.21203959 3.1984512,7.15964658 L6.92506251,3.46480011 C7.02440675,3.3664683 7.02503952,3.20625198 6.92658115,3.10690774 C6.82812278,3.0075635 6.66790646,3.00705728 6.56881532,3.10551565 L6.56881532,3.10551565 Z" id="Page-1-Copy-2" transform="translate(3.000000, 5.116452) rotate(-90.000000) translate(-3.000000, -5.116452) "></path>
                    <rect id="Rectangle-11" x="7" y="0" width="0.5" height="10.116452"></rect>
                </g>
            </g>
        </g>
    </g>
</svg>