<?xml version="1.0" encoding="UTF-8"?>
<svg width="20px" height="20px" viewBox="0 0 20 20" version="1.1" xmlns="http://www.w3.org/2000/svg" xmlns:xlink="http://www.w3.org/1999/xlink">
    <!-- Generator: Sketch 42 (36781) - http://www.bohemiancoding.com/sketch -->
    <title>search-icon</title>
    <desc>Created with Sketch.</desc>
    <defs></defs>
    <g id="Home" stroke="none" stroke-width="1" fill="none" fill-rule="evenodd">
        <g transform="translate(-1671.000000, -180.000000)" id="Group-13" fill="#4A4A4A">
            <g transform="translate(175.000000, 50.000000)">
                <g id="Group-2" transform="translate(0.000000, 100.000000)">
                    <g id="Group-3" transform="translate(1208.000000, 20.000000)">
                        <path d="M307.733752,28.4074798 L302.574463,23.2595445 C303.694229,21.8628601 304.363543,20.0913227 304.363543,18.1637667 C304.363543,13.6550998 300.70061,10 296.181772,10 C291.663161,10 288,13.6550998 288,18.1637667 C288,22.6724336 291.663161,26.3275334 296.181772,26.3275334 C298.113579,26.3275334 299.889023,25.6594652 301.288788,24.542163 L306.448077,29.6900989 C306.625576,29.8672068 306.858302,29.9558742 307.090801,29.9558742 C307.323527,29.9558742 307.556253,29.8672068 307.733752,29.6900989 C308.088749,29.3361078 308.088749,28.7614702 307.733752,28.4074798 L307.733752,28.4074798 Z M296.181772,24.513363 C292.667246,24.513363 289.818171,21.6705581 289.818171,18.1637667 C289.818171,14.6569754 292.667246,11.8141704 296.181772,11.8141704 C299.696524,11.8141704 302.545372,14.6569754 302.545372,18.1637667 C302.545372,21.6705581 299.696524,24.513363 296.181772,24.513363 L296.181772,24.513363 Z" id="search-icon"></path>
                    </g>
                </g>
            </g>
        </g>
    </g>
</svg>